<?xml version="1.0" encoding="utf-8"?>
<!-- Generator: Adobe Illustrator 17.0.2, SVG Export Plug-In . SVG Version: 6.00 Build 0)  -->
<!DOCTYPE svg PUBLIC "-//W3C//DTD SVG 1.1//EN" "http://www.w3.org/Graphics/SVG/1.1/DTD/svg11.dtd">
<svg version="1.1" id="Layer_1" xmlns="http://www.w3.org/2000/svg" xmlns:xlink="http://www.w3.org/1999/xlink" x="0px" y="0px"
	 width="264.3px" height="62.5px" viewBox="0 0 264.3 62.5" enable-background="new 0 0 264.3 62.5" xml:space="preserve">
<g>
	<g>
		<path fill="#FFFFFF" d="M110.1,18.2c0,1-0.2,2-0.5,3.1c-0.3,1.1-0.8,2.1-1.4,3.2c-0.6,1-1.5,2.1-2.4,3s-2.2,1.8-3.6,2.6
			s-3,1.4-4.7,1.9s-3.8,0.8-6,1c1.4,0.5,2.5,1.2,3.4,2c0.9,0.8,1.7,1.8,2.3,2.8c0.6,1,1.1,2.1,1.4,3.2c0.4,1.1,0.7,2.3,0.9,3.3
			s0.5,2.1,0.7,3.1c0.2,1,0.4,1.9,0.7,2.6c0.3,0.8,0.6,1.4,1.1,1.8c0.4,0.5,1,0.7,1.7,0.7c0.7,0,1.4-0.1,2.2-0.4
			c0.8-0.2,1.6-0.6,2.4-1c0.8-0.4,1.6-0.9,2.4-1.5c0.8-0.6,1.5-1.2,2.2-1.9l3.4,6c0,0-0.2,0.1-0.5,0.4c-0.4,0.3-0.9,0.6-1.5,1
			c-0.7,0.4-1.4,0.9-2.3,1.4s-1.9,1-3,1.4s-2.2,0.8-3.4,1.1c-1.2,0.3-2.4,0.4-3.7,0.4c-1.4,0-2.6-0.4-3.6-1.1
			c-1-0.7-1.8-1.7-2.5-2.9c-0.7-1.2-1.3-2.6-1.7-4.1c-0.5-1.5-0.9-3.1-1.2-4.7c-0.3-1.6-0.7-3.2-1-4.7c-0.3-1.5-0.6-2.9-1-4.1
			c-0.4-1.2-0.8-2.2-1.3-2.9c-0.5-0.7-1.1-1.1-1.9-1.1h-1.8c-0.4,4.4-0.9,8.4-1.4,11.9c-0.6,3.5-1.3,6.5-2.3,9
			c-1,2.5-2.2,4.3-3.6,5.6c-1.4,1.3-3.2,1.9-5.3,1.9c-1.5,0-3-0.3-4.2-0.9c-1.3-0.6-2.4-1.5-3.5-2.5s-1.9-2.3-2.7-3.8
			c-0.8-1.4-1.4-3-1.9-4.6s-0.9-3.4-1.2-5.1s-0.4-3.5-0.4-5.3c0-3.1,0.4-6.2,1.1-9.2c0.7-3,1.8-5.9,3.2-8.5c1.4-2.7,3.1-5.1,5.1-7.4
			s4.2-4.2,6.7-5.8c2.5-1.6,5.2-2.9,8.1-3.8s6-1.4,9.3-1.4c1.4,0,2.9,0.1,4.3,0.4c1.4,0.3,2.8,0.7,4.1,1.2s2.5,1.2,3.6,2
			c1.1,0.8,2.1,1.7,2.9,2.8s1.4,2.2,1.9,3.5C109.9,15.4,110.1,16.7,110.1,18.2z M92.1,10.9c-3.2,0-6,0.5-8.5,1.4
			c-2.5,0.9-4.7,2.2-6.6,3.8c-1.9,1.6-3.5,3.4-4.8,5.5s-2.4,4.3-3.2,6.6s-1.4,4.6-1.8,7c-0.4,2.4-0.6,4.6-0.6,6.7
			c0,1.6,0.1,3.3,0.4,4.9c0.3,1.7,0.7,3.1,1.3,4.5c0.6,1.3,1.3,2.4,2.2,3.2c0.9,0.8,2,1.2,3.3,1.2c0.7,0,1.2-0.3,1.7-0.8
			s0.9-1.3,1.3-2.2c0.4-0.9,0.7-1.9,1-3.1c0.3-1.2,0.5-2.4,0.7-3.7c0.2-1.3,0.3-2.6,0.5-3.9c0.1-1.3,0.2-2.5,0.3-3.6s0.1-2.1,0.1-3
			c0-0.9,0-1.6,0-2c-1.5-0.8-2.7-1.4-3.4-2.1c-0.8-0.6-1.2-1.4-1.2-2.2c0-0.2,0-0.4,0-0.7c0-0.3,0.1-0.5,0.2-0.8s0.2-0.5,0.4-0.6
			c0.2-0.2,0.4-0.3,0.7-0.3c0.1,0,0.4,0,0.8,0.1c0.4,0.1,0.8,0.1,1.3,0.2c0.4,0.1,0.9,0.1,1.2,0.2c0.4,0.1,0.6,0.1,0.7,0.1l0-0.6
			c0-0.3,0.1-0.8,0.1-1.3c0-0.6,0.1-1.2,0.2-1.8c0.1-0.6,0.3-1.3,0.5-2c0.2-0.7,0.5-1.3,0.9-1.8c0.4-0.5,0.8-1,1.3-1.3
			s1.1-0.5,1.9-0.5c1,0,1.6,0.2,1.9,0.7c0.3,0.5,0.5,1,0.5,1.7v0.3c0,0.8-0.1,1.8-0.3,3.1c-0.2,1.3-0.4,2.7-0.6,4.4
			c3.1-0.1,5.7-0.4,7.8-1c2-0.6,3.7-1.4,4.9-2.3c1.2-0.9,2-1.9,2.5-3c0.5-1.1,0.7-2.1,0.7-3.1c0-1-0.2-1.9-0.7-2.9
			c-0.5-0.9-1.1-1.7-2-2.4c-0.9-0.7-2-1.3-3.3-1.7C95.4,11.1,93.9,10.9,92.1,10.9z"/>
		<path fill="#FFFFFF" d="M120,56.6c-1.8,0-3.4-0.3-4.8-1c-1.4-0.7-2.5-1.6-3.4-2.8c-0.9-1.2-1.6-2.5-2-4c-0.5-1.5-0.7-3.1-0.7-4.8
			c0-1.1,0.1-2.3,0.3-3.6c0.2-1.3,0.5-2.5,1-3.7s1-2.4,1.6-3.5c0.7-1.1,1.4-2.1,2.3-2.9c0.9-0.8,1.9-1.5,3-2
			c1.1-0.5,2.3-0.7,3.6-0.7c1.1,0,2.1,0.2,3,0.5c0.9,0.4,1.7,0.9,2.4,1.5c0.7,0.7,1.2,1.5,1.6,2.4c0.4,0.9,0.6,2,0.6,3.1
			c0,1.3-0.3,2.5-0.9,3.8c-0.6,1.3-1.4,2.4-2.4,3.6c-1,1.1-2.3,2.1-3.7,3c-1.4,0.9-3,1.6-4.7,2c0.3,0.5,0.6,1,0.9,1.4
			c0.3,0.4,0.6,0.6,0.9,0.9c0.3,0.2,0.6,0.3,0.9,0.4s0.7,0.1,1,0.1c1.2,0,2.4-0.2,3.7-0.7c1.3-0.5,2.5-1.1,3.8-1.8
			c1.2-0.7,2.4-1.5,3.4-2.4c1.1-0.9,2-1.7,2.8-2.4l3.7,4.1c-1.7,1.8-3.5,3.5-5.4,4.9c-0.8,0.6-1.7,1.2-2.7,1.8c-1,0.6-2,1.1-3,1.6
			c-1.1,0.5-2.1,0.8-3.3,1.1C122.3,56.5,121.2,56.6,120,56.6z M116.1,42.4c0.7,0,1.5-0.2,2.3-0.6c0.8-0.4,1.6-0.9,2.3-1.4
			c0.7-0.6,1.3-1.2,1.8-1.9c0.5-0.7,0.7-1.4,0.7-2c0-0.9-0.2-1.7-0.5-2.3c-0.3-0.6-0.7-0.9-1.2-0.9c-0.8,0-1.5,0.2-2.1,0.5
			s-1.1,0.7-1.5,1.3c-0.4,0.5-0.7,1.1-1,1.8c-0.2,0.7-0.4,1.3-0.6,2c-0.1,0.7-0.2,1.3-0.2,1.9C116.2,41.4,116.1,41.9,116.1,42.4z"/>
		<path fill="#FFFFFF" d="M133,46.8c-0.1-1.5-0.1-2.8-0.2-4c-0.1-1.1-0.1-2.1-0.2-3.1c0-0.9-0.1-1.8-0.1-2.5c0-0.8,0-1.6,0-2.4
			c0-2.1,0.1-3.7,0.3-4.9c0.2-1.2,0.6-1.8,1.2-1.9l3.5-0.6c0.1,0,0.2,0,0.3,0c0.1,0,0.2,0,0.3,0c0.7,0,1.2,0.2,1.5,0.6
			c0.4,0.4,0.5,0.9,0.6,1.4L139,48.7l0.4,0l7.6-19.1c0.1-0.3,0.2-0.6,0.4-0.8c0.2-0.3,0.4-0.5,0.8-0.7c0.3-0.2,0.7-0.3,1-0.5
			c0.4-0.1,0.8-0.2,1.2-0.2c1.1,0,2,0.2,2.7,0.7c0.7,0.5,1,1.1,1,1.8c0,0.6-0.1,1.1-0.2,1.6c-0.1,0.5-0.3,1.1-0.6,1.7
			c-0.3,0.6-0.6,1.3-0.9,2c-0.4,0.7-0.7,1.6-1.2,2.6c-0.1,0.4-0.3,0.7-0.3,1.1c-0.1,0.3-0.2,0.7-0.2,1.2c-0.1,0.4-0.1,0.9-0.1,1.4
			c0,0.5,0.1,1,0.2,1.4c0.1,0.5,0.3,0.9,0.6,1.3c0.3,0.4,0.7,0.7,1.2,0.9s1.1,0.3,1.9,0.3c0.6,0,1.2-0.2,2-0.5
			c0.8-0.3,1.5-0.7,2.2-1.1c0.8-0.5,1.6-1,2.4-1.6v7.1c-1.3,0.9-2.6,1.5-4,2c-1.4,0.5-2.7,0.8-3.9,0.8c-1,0-2-0.2-2.8-0.5
			c-0.8-0.3-1.5-0.8-2.1-1.4c-0.6-0.6-1-1.2-1.3-1.9s-0.5-1.4-0.5-2.2c-0.6,1.2-1.2,2.5-1.9,3.7c-0.7,1.3-1.5,2.4-2.2,3.5
			c-0.8,1-1.5,1.9-2.3,2.5c-0.8,0.7-1.5,1-2.2,1c-1.1,0-2-0.3-2.6-0.9c-0.6-0.6-1.1-1.4-1.4-2.3c-0.3-0.9-0.5-1.9-0.6-3
			s-0.2-2.1-0.2-3.1L133,46.8z"/>
		<path fill="#FFFFFF" d="M169.1,56.6c-1.8,0-3.4-0.3-4.8-1c-1.4-0.7-2.5-1.6-3.4-2.8c-0.9-1.2-1.6-2.5-2-4
			c-0.5-1.5-0.7-3.1-0.7-4.8c0-1.1,0.1-2.3,0.3-3.6c0.2-1.3,0.5-2.5,1-3.7s1-2.4,1.6-3.5c0.7-1.1,1.4-2.1,2.3-2.9
			c0.9-0.8,1.9-1.5,3-2c1.1-0.5,2.3-0.7,3.6-0.7c1.1,0,2.1,0.2,3,0.5c0.9,0.4,1.7,0.9,2.4,1.5c0.7,0.7,1.2,1.5,1.6,2.4
			c0.4,0.9,0.6,2,0.6,3.1c0,1.3-0.3,2.5-0.9,3.8c-0.6,1.3-1.4,2.4-2.4,3.6c-1,1.1-2.3,2.1-3.7,3c-1.4,0.9-3,1.6-4.7,2
			c0.3,0.5,0.6,1,0.9,1.4c0.3,0.4,0.6,0.6,0.9,0.9c0.3,0.2,0.6,0.3,0.9,0.4s0.7,0.1,1,0.1c1.2,0,2.4-0.2,3.7-0.7
			c1.3-0.5,2.5-1.1,3.8-1.8c1.2-0.7,2.4-1.5,3.4-2.4c1.1-0.9,2-1.7,2.8-2.4l3.7,4.1c-1.7,1.8-3.5,3.5-5.4,4.9
			c-0.8,0.6-1.7,1.2-2.7,1.8c-1,0.6-2,1.1-3,1.6c-1.1,0.5-2.1,0.8-3.3,1.1C171.4,56.5,170.2,56.6,169.1,56.6z M165.2,42.4
			c0.7,0,1.5-0.2,2.3-0.6c0.8-0.4,1.6-0.9,2.3-1.4c0.7-0.6,1.3-1.2,1.8-1.9c0.5-0.7,0.7-1.4,0.7-2c0-0.9-0.2-1.7-0.5-2.3
			c-0.3-0.6-0.7-0.9-1.2-0.9c-0.8,0-1.5,0.2-2.1,0.5s-1.1,0.7-1.5,1.3c-0.4,0.5-0.7,1.1-1,1.8c-0.2,0.7-0.4,1.3-0.6,2
			c-0.1,0.7-0.2,1.3-0.2,1.9C165.2,41.4,165.2,41.9,165.2,42.4z"/>
		<path fill="#FFFFFF" d="M182.1,50.3c0-1.3,0.1-2.9,0.2-4.6c0.2-1.8,0.3-3.5,0.6-5.4c0.2-1.8,0.5-3.6,0.8-5.2
			c0.3-1.7,0.6-3.1,0.8-4.3c0.2-0.9,0.6-1.7,1.2-2.3c0.6-0.6,1.4-0.9,2.5-0.9c1,0,1.8,0.3,2.2,1s0.6,1.6,0.6,2.7
			c0,0.3,0,0.7-0.1,1.2s-0.1,1.1-0.2,1.7c-0.1,0.6-0.2,1.3-0.3,1.9s-0.2,1.3-0.3,1.8c-0.1,0.6-0.2,1-0.2,1.5s-0.1,0.7-0.1,0.8h0.6
			c0.1-0.2,0.3-0.6,0.5-1.1s0.5-1.1,0.9-1.7c0.3-0.6,0.7-1.3,1.1-2.1c0.4-0.7,0.7-1.4,1.1-2.1c0.3-0.7,0.6-1.2,0.9-1.7
			c0.3-0.5,0.5-0.9,0.6-1.1c0.6-1.1,1.3-1.8,2.1-2.2c0.8-0.4,1.7-0.6,2.6-0.6c1,0,1.7,0.4,2.3,1.3s0.9,2,0.9,3.5
			c0,0.2,0,0.6-0.1,1.1c-0.1,0.5-0.2,1.2-0.3,1.9c-0.1,0.7-0.3,1.5-0.4,2.4c-0.2,0.9-0.3,1.8-0.4,2.7c-0.1,0.9-0.2,1.8-0.3,2.7
			c-0.1,0.9-0.1,1.7-0.1,2.5c0,1.3,0.1,2.3,0.4,3.1c0.3,0.8,0.8,1.2,1.4,1.2c0.3,0,0.6-0.1,1-0.3c0.4-0.2,0.8-0.4,1.2-0.7
			c0.4-0.3,0.9-0.6,1.3-1c0.5-0.4,0.9-0.8,1.3-1.2c1-1,2.1-2,3.2-3.2l0.5,6.8l-1.4,1.2c-0.8,0.6-1.6,1.3-2.4,1.9
			c-0.8,0.6-1.7,1.2-2.6,1.7c-0.9,0.5-1.8,0.9-2.8,1.2c-1,0.3-2,0.5-3,0.5c-1.1,0-2-0.8-2.7-2.4c-0.7-1.6-1.1-4-1.1-7.1
			c0-1.2,0.1-2.5,0.2-3.9c0.2-1.4,0.3-2.9,0.6-4.5h-0.5l-7.6,15.8c-0.4,0.8-0.8,1.4-1.3,1.7s-1,0.5-1.7,0.5c-0.8,0-1.4-0.2-1.9-0.5
			c-0.5-0.4-0.9-0.8-1.1-1.4c-0.3-0.6-0.4-1.3-0.5-2C182.1,51.9,182.1,51.1,182.1,50.3z"/>
		<path fill="#FFFFFF" d="M230.6,29.4c0,0.5-0.1,1.3-0.2,2.2c-0.1,0.9-0.3,2-0.4,3.1c-0.2,1.1-0.4,2.3-0.6,3.5
			c-0.2,1.2-0.4,2.3-0.6,3.3s-0.3,1.9-0.4,2.7c-0.1,0.8-0.2,1.3-0.2,1.6c0,0.6,0,1.1,0,1.6c0,0.5,0.1,0.9,0.2,1.2
			c0.1,0.4,0.2,0.6,0.4,0.8c0.2,0.2,0.5,0.3,0.9,0.3c0.4,0,0.9-0.1,1.5-0.3c0.6-0.2,1.3-0.5,1.9-0.9s1.4-0.8,2.1-1.3
			c0.7-0.5,1.4-1,2-1.5c0.6-0.5,1.2-1,1.8-1.6c0.5-0.5,1-1,1.3-1.4c0,0.7,0,1.3,0,1.8s0,1.1,0,1.6c0,0.5,0,1,0,1.5
			c0,0.5,0,1.1,0,1.8c-0.4,0.4-1,0.9-1.6,1.4c-0.6,0.5-1.3,1-2.1,1.5s-1.6,1-2.4,1.5c-0.9,0.5-1.7,0.9-2.6,1.2
			c-0.9,0.4-1.7,0.6-2.6,0.9c-0.8,0.2-1.6,0.3-2.4,0.3s-1.4-0.2-1.9-0.5c-0.5-0.3-1-0.7-1.3-1.3c-0.4-0.5-0.7-1.2-1-2
			c-0.3-0.8-0.5-1.6-0.7-2.5c-0.7,1-1.4,1.8-2.2,2.6s-1.6,1.5-2.4,2.1c-0.8,0.6-1.6,1-2.4,1.4c-0.8,0.3-1.6,0.5-2.4,0.5
			c-0.6,0-1.2-0.1-1.8-0.3c-0.6-0.2-1.1-0.6-1.5-1.1c-0.4-0.5-0.8-1.2-1-2.1c-0.3-0.9-0.4-1.9-0.4-3.2c0-1.6,0.2-3.5,0.5-6
			c0.4-2.4,0.8-5.2,1.3-8.3c0-0.3,0.1-0.7,0.2-1.2c0.1-0.5,0.3-1.1,0.4-1.7c0.2-0.6,0.4-1.2,0.7-1.9c0.3-0.6,0.6-1.2,1-1.7
			c0.4-0.5,0.8-0.9,1.3-1.2c0.5-0.3,1-0.5,1.7-0.5c1,0,1.8,0.2,2.2,0.4c0.4,0.2,0.7,0.5,0.7,0.9c-0.2,1.1-0.4,2.3-0.6,3.6
			c-0.2,1.3-0.4,2.6-0.6,4c-0.2,1.3-0.4,2.6-0.6,3.9c-0.2,1.3-0.4,2.4-0.5,3.4c-0.2,1-0.3,1.8-0.4,2.4S215,47,215,47
			c0,0.4,0,0.7,0.1,1c0.1,0.3,0.2,0.6,0.3,0.9s0.3,0.5,0.5,0.6c0.2,0.2,0.5,0.2,0.8,0.2c0.4,0,0.9-0.1,1.3-0.3s0.9-0.6,1.3-1
			c0.4-0.4,0.7-1,1.1-1.6s0.5-1.4,0.7-2.2l2.9-15.4c0.1-0.5,0.5-0.9,1.2-1.2s1.5-0.5,2.3-0.5c1,0,1.8,0.2,2.3,0.5
			C230.3,28.4,230.6,28.9,230.6,29.4z"/>
		<path fill="#FFFFFF" d="M246.5,56.6c-1.8,0-3.4-0.3-4.8-1c-1.4-0.7-2.5-1.6-3.4-2.8c-0.9-1.2-1.6-2.5-2-4
			c-0.5-1.5-0.7-3.1-0.7-4.8c0-1.1,0.1-2.3,0.3-3.6c0.2-1.3,0.5-2.5,1-3.7s1-2.4,1.6-3.5c0.7-1.1,1.4-2.1,2.3-2.9
			c0.9-0.8,1.9-1.5,3-2c1.1-0.5,2.3-0.7,3.6-0.7c1.1,0,2.1,0.2,3,0.5c0.9,0.4,1.7,0.9,2.4,1.5c0.7,0.7,1.2,1.5,1.6,2.4
			c0.4,0.9,0.6,2,0.6,3.1c0,1.3-0.3,2.5-0.9,3.8c-0.6,1.3-1.4,2.4-2.4,3.6c-1,1.1-2.3,2.1-3.7,3c-1.4,0.9-3,1.6-4.7,2
			c0.3,0.5,0.6,1,0.9,1.4c0.3,0.4,0.6,0.6,0.9,0.9c0.3,0.2,0.6,0.3,0.9,0.4s0.7,0.1,1,0.1c1.2,0,2.4-0.2,3.7-0.7
			c1.3-0.5,2.5-1.1,3.8-1.8c1.2-0.7,2.4-1.5,3.4-2.4c1.1-0.9,2-1.7,2.8-2.4l3.7,4.1c-1.7,1.8-3.5,3.5-5.4,4.9
			c-0.8,0.6-1.7,1.2-2.7,1.8c-1,0.6-2,1.1-3,1.6c-1.1,0.5-2.1,0.8-3.3,1.1C248.8,56.5,247.7,56.6,246.5,56.6z M242.7,42.4
			c0.7,0,1.5-0.2,2.3-0.6c0.8-0.4,1.6-0.9,2.3-1.4c0.7-0.6,1.3-1.2,1.8-1.9c0.5-0.7,0.7-1.4,0.7-2c0-0.9-0.2-1.7-0.5-2.3
			c-0.3-0.6-0.7-0.9-1.2-0.9c-0.8,0-1.5,0.2-2.1,0.5s-1.1,0.7-1.5,1.3c-0.4,0.5-0.7,1.1-1,1.8c-0.2,0.7-0.4,1.3-0.6,2
			c-0.1,0.7-0.2,1.3-0.2,1.9C242.7,41.4,242.7,41.9,242.7,42.4z"/>
	</g>
	<g>
		<path fill="#FFFFFF" d="M25.2,24.3c0.6-0.6,1.1-1,1.5-1.4s0.7-0.7,1-1c0.3-0.3,0.5-0.6,0.7-0.9s0.5-0.7,0.8-1.1
			c0.3-0.4,0.7-0.9,1.1-1.6c0.4-0.6,1-1.4,1.7-2.3c0.1-0.2,0.3-0.4,0.5-0.6s0.4-0.4,0.6-0.5c0.2-0.2,0.4-0.3,0.7-0.4
			s0.5-0.1,0.9-0.1c0.5,0,0.9,0.1,1.2,0.2c0.3,0.1,0.5,0.3,0.6,0.4c0.1,0.2,0.2,0.4,0.2,0.5c0,0.2,0,0.4,0,0.5
			c0,0.3-0.1,0.6-0.3,0.9c-0.2,0.3-0.4,0.7-0.7,1c-0.3,0.3-0.5,0.6-0.7,0.9s-0.4,0.5-0.4,0.6c0,0.4,0,0.7,0.1,1
			c0,0.3,0.1,0.6,0.2,0.9c0.1,0.3,0.2,0.6,0.3,0.9c0.1,0.3,0.2,0.7,0.3,1.1c0.1,0.4,0.1,0.9,0.2,1.4c0,0.5,0.1,1.2,0.1,1.9
			c0.4-0.3,0.8-0.5,1.3-0.8c0.5-0.2,0.9-0.5,1.4-0.7c0.5-0.2,1-0.5,1.5-0.8s1-0.6,1.6-1.1l0,3.9c-0.7,0.6-1.5,1.1-2.4,1.6
			c-0.9,0.5-1.8,0.9-2.8,1.3c-1,0.4-2,0.7-3,0.9c-1,0.2-2,0.3-2.9,0.3c-0.6,0-1.2-0.1-1.8-0.2s-1-0.3-1.5-0.6
			c-0.4-0.3-0.8-0.6-1-1.1c-0.3-0.4-0.4-1-0.5-1.6c-0.2,0-0.3,0.1-0.5,0.1c-0.1,0-0.3,0-0.4,0c-0.2,0-0.3,0-0.5,0
			c-0.2,0-0.3-0.1-0.4-0.1s-0.2-0.2-0.3-0.4c-0.1-0.2-0.1-0.4-0.1-0.7c0-0.3,0.1-0.5,0.2-0.8s0.3-0.4,0.5-0.6s0.4-0.3,0.5-0.5
			C25,24.5,25.1,24.4,25.2,24.3z M27.3,26.5c0.1,0,0.3,0.1,0.4,0.3c0.2,0.2,0.3,0.4,0.5,0.6s0.4,0.4,0.7,0.6
			c0.3,0.2,0.6,0.3,0.9,0.3c0.4,0,0.8-0.1,1.1-0.2c0.3-0.1,0.5-0.3,0.7-0.6s0.3-0.5,0.3-0.9c0.1-0.3,0.1-0.7,0.1-1
			c0-0.3,0-0.6-0.1-0.9c0-0.3-0.1-0.6-0.1-0.9c-0.1-0.3-0.1-0.6-0.2-0.8s-0.1-0.5-0.2-0.7L27.3,26.5z"/>
		<path fill="#FFFFFF" d="M52.9,27.1c-1.1,0.6-2,1.2-2.8,1.7c-0.8,0.5-1.6,0.9-2.2,1.2s-1.2,0.6-1.7,0.7c-0.5,0.2-1,0.2-1.4,0.2
			c-0.8,0-1.6-0.3-2.2-0.8c-0.6-0.5-1.2-1.3-1.6-2.3c-0.4-1-0.7-2.2-1-3.6s-0.3-3-0.3-4.8c0-0.7,0-1.4,0.1-2.2
			c0.1-0.8,0.1-1.6,0.2-2.3c-0.3,0-0.6-0.1-0.8-0.1c-0.2,0-0.4-0.1-0.6-0.1c-0.2,0-0.5-0.1-0.8-0.1s-0.8-0.1-1.4-0.2
			c-0.3,0-0.5-0.1-0.6-0.2c-0.1-0.1-0.2-0.2-0.3-0.3c-0.1-0.1-0.1-0.3-0.1-0.4c0-0.1,0-0.3,0-0.4c0-0.2,0.1-0.4,0.3-0.5
			c0.2-0.1,0.5-0.2,0.8-0.3s0.7-0.1,1.1-0.1c0.4,0,0.8,0,1.2,0c0.4,0,0.7,0,1,0c0.3,0,0.5,0,0.6,0c0.3-1.6,0.7-3.1,1.1-4.5
			c0.5-1.5,1-2.8,1.5-3.9s1.2-2,1.8-2.7c0.7-0.7,1.4-1,2.1-1c0.5,0,0.9,0.1,1.3,0.4c0.4,0.3,0.7,0.6,1,1.1c0.3,0.5,0.5,1,0.6,1.6
			c0.1,0.6,0.2,1.3,0.2,1.9c0,0.6-0.1,1.2-0.2,1.8s-0.4,1.3-0.6,1.9s-0.6,1.3-0.9,2c-0.4,0.7-0.7,1.3-1.1,2c0.1,0,0.3,0,0.5,0
			s0.5,0,0.8,0c0.3,0,0.6,0,1,0c0.3,0,0.7,0,1,0c0.3,0,0.6,0,0.9,0c0.3,0,0.5,0,0.7,0c0.2,0,0.4,0.1,0.5,0.3s0.1,0.5,0.1,0.8
			c0,0.4-0.1,0.7-0.3,1c-0.2,0.3-0.5,0.4-0.7,0.4h-6.3c-0.3,0.5-0.6,0.9-1,1.4c-0.3,0.4-0.6,0.8-0.9,1.2c0,0.7-0.1,1.4-0.1,2.1
			c0,0.3,0,0.6,0,0.9s0,0.6,0,0.9c0,0.3,0,0.6,0,0.9s0,0.6,0,0.8c0,0.6,0.1,1.1,0.2,1.6c0.1,0.4,0.3,0.8,0.5,1s0.5,0.5,0.8,0.6
			c0.3,0.1,0.6,0.2,1,0.2c0.2,0,0.5-0.1,0.9-0.2c0.3-0.1,0.7-0.3,1.1-0.5c0.4-0.2,0.8-0.4,1.3-0.7c0.5-0.3,0.9-0.6,1.3-0.9
			c0.4-0.3,0.9-0.7,1.3-1s0.8-0.7,1.1-1.1V27.1z M47.7,5.2c0-0.1,0-0.3,0-0.4c0-0.2-0.1-0.3-0.1-0.4c-0.1-0.1-0.1-0.3-0.3-0.3
			c-0.1-0.1-0.3-0.1-0.5-0.1c-0.3,0-0.6,0.3-0.9,0.8c-0.3,0.5-0.6,1.2-0.8,2c-0.3,0.8-0.5,1.7-0.8,2.7c-0.2,1-0.5,2-0.6,2.9
			c0.2,0,0.3,0,0.5,0.1c0.2,0,0.3,0,0.5,0.1c0.3-0.6,0.7-1.2,1-1.9s0.7-1.4,1-2c0.3-0.7,0.5-1.3,0.7-1.9S47.7,5.6,47.7,5.2z"/>
	</g>
	<g>
		<path fill="#FFFFFF" d="M12.9,17.9c-0.4,0.6-0.9,1.1-1.3,1.7s-1,1.1-1.4,1.6c-0.5,0.5-0.9,0.9-1.3,1.1c-0.4,0.3-0.7,0.4-0.9,0.4
			c-2.6,0-4.6-0.3-6-0.9C0.7,21.4,0,20.8,0,20.2c0-0.4,0.3-0.7,0.9-0.9c0.6-0.2,1.5-0.4,2.7-0.4c0.3,0,0.8-0.3,1.4-0.9
			c0.6-0.6,1.3-1.3,2.2-2.2C7.9,15,8.9,14.1,9.9,13c1-1,2.1-1.9,3.1-2.8c1.1-0.9,2.2-1.6,3.3-2.2c1.1-0.6,2.2-0.9,3.2-0.9
			c1.5,0,2.5,0.1,3,0.4c0.5,0.3,0.7,0.6,0.7,1.1c0,0.5-0.1,1.2-0.2,1.9c-0.1,0.8-0.2,1.7-0.2,2.7c-0.3,2.5-0.6,4.8-0.8,6.8
			c-0.2,2-0.5,4.3-0.8,6.9c-0.3,2.6-0.6,5.1-0.9,7.8c-0.3,2.6-0.6,5.2-0.9,7.7c-0.3,2.5-0.5,4.6-0.7,6.5c-0.1,0.4-0.2,1-0.3,1.9
			s-0.3,1.7-0.5,2.7s-0.5,2-0.8,3c-0.3,1-0.7,2-1.1,2.8c-0.4,0.9-1,1.5-1.6,2.1c-0.6,0.5-1.3,0.8-2,0.8c-0.9,0-1.8-0.1-2.6-0.2
			s-1.5-0.4-2.1-0.7c-0.6-0.3-1-0.7-1.4-1.1s-0.5-1-0.5-1.7c0-0.3,0-0.6,0-0.8c0-0.3,0.1-0.6,0.3-1c0.4-2,0.9-4.1,1.3-6.3
			C8,48.2,8.4,46,8.8,43.8c0.4-2.2,0.8-4.4,1.1-6.5s0.7-4.2,1-6.1C11.7,26.8,12.3,22.4,12.9,17.9z"/>
	</g>
</g>
</svg>
