<?xml version="1.0" encoding="utf-8"?>
<!-- Generator: Adobe Illustrator 17.0.2, SVG Export Plug-In . SVG Version: 6.00 Build 0)  -->
<!DOCTYPE svg PUBLIC "-//W3C//DTD SVG 1.1//EN" "http://www.w3.org/Graphics/SVG/1.1/DTD/svg11.dtd">
<svg version="1.1" id="Layer_1" xmlns="http://www.w3.org/2000/svg" xmlns:xlink="http://www.w3.org/1999/xlink" x="0px" y="0px"
	 width="90.5px" height="90.5px" viewBox="0 0 90.5 90.5" enable-background="new 0 0 90.5 90.5" xml:space="preserve">
<g>
	<path fill="#BE3B2B" d="M90.5,52.5c0,3-2.4,5.4-5.4,5.4H19c-3,0-5.4-2.4-5.4-5.4V5.4C13.6,2.4,16,0,19,0h66.1c3,0,5.4,2.4,5.4,5.4
		V52.5z"/>
	<path fill="#E34D3C" d="M76.9,66.1c0,2.9-2.5,5.4-5.4,5.4H59.7c-1,0-1.8,0.7-1.8,1.8v16.3c0,0.7-0.2,0.9-0.8,0.9
		c-0.2,0-0.4-0.1-0.8-0.4L34.6,73.3c-2.7-1.8-5.5-1.8-5.5-1.8l-23.7,0c-3,0-5.3-2.4-5.3-5.3V19.9c0-2.9,2.6-5.5,5.4-5.5h66.1
		c3.2,0,5.4,2.5,5.4,5.4V66.1z"/>
</g>
</svg>
