<?xml version="1.0" encoding="utf-8"?>
<!-- Generator: Adobe Illustrator 17.0.2, SVG Export Plug-In . SVG Version: 6.00 Build 0)  -->
<!DOCTYPE svg PUBLIC "-//W3C//DTD SVG 1.1//EN" "http://www.w3.org/Graphics/SVG/1.1/DTD/svg11.dtd">
<svg version="1.1" id="Layer_1" xmlns="http://www.w3.org/2000/svg" xmlns:xlink="http://www.w3.org/1999/xlink" x="0px" y="0px"
	 width="110.6px" height="79.5px" viewBox="0 0 110.6 79.5" enable-background="new 0 0 110.6 79.5" xml:space="preserve">
<path fill="#39AF9A" d="M89.6,28.1C88.1,12.4,74.9,0,58.8,0C46.2,0,35.5,7.4,30.6,18.1c-1.5-0.5-3-0.8-4.7-0.8
	c-8.6,0-15.6,7-15.6,15.6c0,1.7,0.3,3.3,0.9,4.9C4.5,41.6,0,48.7,0,57c0,12.4,10.1,22.5,22.5,22.5v0h62.2v0
	c14.3,0,25.9-11.6,25.9-25.9C110.6,40.9,101.5,30.4,89.6,28.1z M37.5,54.1L31,47.7c-0.9-1.5-0.2-2.7,1.7-2.7h2.8
	c0.2-11.5,9.5-20.8,21-20.8c5.8,0,11,2.4,14.8,6.2L66.6,35c-2.6-2.6-6.2-4.2-10.1-4.2c-7.9,0-14.1,6.4-14.4,14.2h3.5
	c1.8,0,2.6,1.2,1.7,2.7l-6.4,6.4C39.9,55.6,38.4,55.6,37.5,54.1z M79.5,44.9h-2.8c-0.2,11.5-9.5,20.8-21,20.8
	c-5.8,0-11.1-2.4-14.9-6.2l4.7-4.5c2.6,2.6,6.2,4.2,10.2,4.2c8,0,14.2-6.4,14.4-14.2h-3.5c-1.8,0-2.6-1.2-1.7-2.7l6.4-6.4
	c0.9-1.5,2.4-1.5,3.4,0l6.4,6.4C82.1,43.7,81.3,44.9,79.5,44.9z"/>
</svg>
