<?xml version="1.0" encoding="utf-8"?>
<!-- Generator: Adobe Illustrator 17.0.2, SVG Export Plug-In . SVG Version: 6.00 Build 0)  -->
<!DOCTYPE svg PUBLIC "-//W3C//DTD SVG 1.1//EN" "http://www.w3.org/Graphics/SVG/1.1/DTD/svg11.dtd">
<svg version="1.1" id="Layer_1" xmlns="http://www.w3.org/2000/svg" xmlns:xlink="http://www.w3.org/1999/xlink" x="0px" y="0px"
	 width="87.1px" height="84.6px" viewBox="0 0 87.1 84.6" enable-background="new 0 0 87.1 84.6" xml:space="preserve">
<path fill="#4A76B2" d="M35.9,0.1h-1.2h-31H2.4C1.1,0.1,0,1.1,0,2.5v1.3v31V36c0,1.3,1.1,2.4,2.4,2.4h1.3h31h1.2
	c1.3,0,2.4-1.1,2.4-2.4v-1.3v-31V2.5C38.3,1.1,37.2,0.1,35.9,0.1z M32.8,31.1h-5.4v-8.6c0-2.2-0.6-3.6-2.6-3.6c-1.5,0-2.4,1-2.8,2
	c-0.1,0.3-0.2,0.8-0.2,1.3v9h-5.6c0,0,0.1-15,0-16.5h5.6v2.3c0.7-1.1,2-2.7,4.9-2.7c3.5,0,6,2.8,6,7.7L32.8,31.1L32.8,31.1z
	 M9.7,7.4c1.7,0,2.7,1.2,2.7,2.8c0,1.5-1,2.8-2.7,2.8h0c-1.6,0-2.7-1.2-2.7-2.8C7,8.6,8.1,7.4,9.7,7.4z M12.8,14.6v16.5H7.3V14.6
	H12.8z"/>
<g>
	<path fill="#C33E2D" d="M48.7,30.8c1.4-0.7,2.9-1.1,4.4-1.4c2-0.3,3.7-0.5,5.1-0.5c-0.4-0.6-0.8-1.1-1.1-1.8
		c-0.4-0.6-0.6-1.3-0.6-2.2c0-0.5,0.1-0.9,0.2-1.3c0.1-0.4,0.2-0.7,0.4-1c-0.7,0.1-1.3,0.1-1.9,0.1c-2.8,0-4.9-0.8-6.5-2.4V30.8z"/>
	<path fill="#C33E2D" d="M62.8,15.3c0-2.3-0.6-4.6-1.8-7c-0.5-1.1-1.3-2-2.2-2.7c-0.9-0.7-2-1-3.1-1.1c-1.6,0-2.9,0.7-3.9,1.9
		c-0.9,1.3-1.3,2.7-1.3,4.3c0,2.1,0.6,4.3,1.8,6.6c0.6,1.1,1.4,2,2.3,2.7c0.9,0.7,2,1.1,3.2,1.1c1.5-0.1,2.8-0.6,3.8-1.7
		c0.5-0.7,0.8-1.5,0.9-2.3C62.8,16.5,62.8,15.8,62.8,15.3z"/>
	<path fill="#C33E2D" d="M59.8,30.6c-0.4,0-0.8-0.1-1.3-0.1c-0.3,0-1.1,0-2.3,0.1c-1.2,0.2-2.4,0.4-3.7,0.8
		c-0.3,0.1-0.7,0.3-1.2,0.5c-0.5,0.2-1.1,0.6-1.6,1.1c-0.4,0.3-0.7,0.7-1,1.1v1.6c0,1.5,1.2,2.7,2.7,2.7H66c0,0,0-0.1,0-0.1
		c0-1.5-0.5-2.8-1.4-3.9C63.5,33.4,62,32.1,59.8,30.6z"/>
	<path fill="#C33E2D" d="M84.5,0h-6.9h-9.6h-9.8h-6.8c-1.5,0-2.7,1.2-2.7,2.7v2.9v0.7c0.2-0.2,0.3-0.4,0.5-0.5
		c1.6-1.4,3.4-2.3,5.1-2.7c1.8-0.4,3.4-0.5,4.9-0.5h11.6l-3.6,2.1h-3.6c0.4,0.2,0.8,0.6,1.2,1c0.4,0.5,0.9,1,1.3,1.7
		C66.7,8,67,8.7,67.3,9.6c0.3,0.9,0.4,1.9,0.4,3c0,2.1-0.5,3.8-1.4,5c-0.4,0.6-0.9,1.2-1.4,1.7c-0.5,0.5-1.1,1-1.7,1.6
		c-0.3,0.4-0.7,0.8-1,1.2c-0.3,0.5-0.5,1-0.5,1.6c0,0.6,0.2,1.1,0.5,1.5c0.3,0.4,0.6,0.7,0.9,1l2,1.6c1.2,1,2.3,2.1,3.2,3.3
		c0.9,1.2,1.3,2.9,1.4,4.8c0,0.8-0.1,1.6-0.3,2.4h15.1c1.5,0,2.7-1.2,2.7-2.7V5.6V2.7C87.1,1.2,85.9,0,84.5,0z M86.6,11.9h-6.1V18
		h-2.9v-6.1h-6.1v-3h6.1V2.8h2.9v6.1h6.1V11.9z"/>
</g>
<path id="facebook" fill="#3C5A96" d="M58.8,46.3H24.9c-1.2,0-2.2,1-2.2,2.2v33.9c0,1.2,1,2.2,2.2,2.2h33.9c1.2,0,2.2-1,2.2-2.2
	V48.5C61,47.3,60,46.3,58.8,46.3z M55.2,67.8h-5.3v14.1h-5.4V67.8h-3.7v-5.1h3.7c0,0,0-2.1,0-4.3c0-3.4,2.2-6.5,7.3-6.5
	c2,0,3.6,0.2,3.6,0.2l-0.1,4.7c0,0-1.5,0-3.2,0c-1.8,0-2.1,0.8-2.1,2.2c0,0.2,0,0.2,0,0.2c0,0.4,0,1.3,0,3.5h5.5L55.2,67.8z"/>
</svg>
